<svg width="339" height="163" viewBox="0 0 339 163" fill="none" xmlns="http://www.w3.org/2000/svg">
<g filter="url(#filter0_d_29_7)">
<path d="M7 53C7 25.3858 29.3858 3 57 3H282C309.614 3 332 25.3858 332 53V102C332 129.614 309.614 152 282 152H57C29.3858 152 7 129.614 7 102V53Z" fill="url(#paint0_linear_29_7)" shape-rendering="crispEdges"/>
<path d="M54.5456 151.941C52.895 151.861 51.2655 151.701 49.6607 151.465L49.4424 152.949C47.7617 152.702 46.1073 152.374 44.4832 151.968L44.8466 150.513C43.2494 150.114 41.6825 149.638 40.1503 149.09L39.6449 150.502C38.0504 149.932 36.4924 149.285 34.9751 148.566L35.6174 147.21C34.1339 146.507 32.6905 145.734 31.2916 144.893L30.5192 146.179C29.0714 145.309 27.6699 144.371 26.3193 143.367L27.2137 142.163C25.8987 141.186 24.6333 140.147 23.422 139.048L22.4144 140.159C21.1658 139.027 19.9731 137.834 18.8408 136.586L19.952 135.578C18.8535 134.367 17.8135 133.101 16.8367 131.786L15.6326 132.681C14.6293 131.33 13.6905 129.929 12.8209 128.481L14.1067 127.708C13.2665 126.31 12.4927 124.866 11.7899 123.383L10.4343 124.025C9.71544 122.508 9.0685 120.95 8.49791 119.355L9.9102 118.85C9.36186 117.317 8.88619 115.751 8.48733 114.153L7.03202 114.517C6.62647 112.893 6.29804 111.238 6.05081 109.558L7.53484 109.339C7.29879 107.735 7.13897 106.105 7.05919 104.454L5.56094 104.527C5.52046 103.69 5.5 102.847 5.5 102V99.55H7V94.65H5.5V89.75H7V84.85H5.5V79.95H7V75.05H5.5V70.15H7V65.25H5.5V60.35H7V55.45H5.5V53C5.5 52.1529 5.52046 51.3105 5.56094 50.4732L7.05919 50.5456C7.13897 48.895 7.29879 47.2655 7.53484 45.6607L6.05081 45.4424C6.29804 43.7617 6.62647 42.1073 7.03202 40.4832L8.48733 40.8466C8.88618 39.2494 9.36186 37.6825 9.9102 36.1503L8.49791 35.6449C9.0685 34.0504 9.71544 32.4924 10.4343 30.9751L11.7898 31.6174C12.4927 30.1339 13.2665 28.6905 14.1067 27.2916L12.8209 26.5192C13.6905 25.0714 14.6293 23.6699 15.6325 22.3193L16.8367 23.2138C17.8135 21.8987 18.8535 20.6333 19.952 19.422L18.8408 18.4144C19.9731 17.1658 21.1658 15.9731 22.4144 14.8408L23.422 15.952C24.6333 14.8535 25.8987 13.8135 27.2137 12.8367L26.3193 11.6326C27.6699 10.6293 29.0714 9.69052 30.5192 8.82086L31.2916 10.1067C32.6905 9.26649 34.1339 8.49274 35.6174 7.78985L34.9751 6.43431C36.4924 5.71544 38.0504 5.0685 39.6449 4.49791L40.1503 5.9102C41.6825 5.36186 43.2494 4.88619 44.8466 4.48733L44.4832 3.03202C46.1073 2.62647 47.7617 2.29804 49.4424 2.05081L49.6607 3.53484C51.2655 3.29879 52.895 3.13897 54.5456 3.05919L54.4732 1.56094C55.3105 1.52046 56.1529 1.5 57 1.5H59.4457V3H64.337V1.5H69.2283V3H74.1196V1.5H79.0109V3H83.9022V1.5H88.7935V3H93.6848V1.5H98.5761V3H103.467V1.5H108.359V3H113.25V1.5H118.141V3H123.033V1.5H127.924V3H132.815V1.5H137.707V3H142.598V1.5H147.489V3H152.38V1.5H157.272V3H162.163V1.5H167.054V3H171.946V1.5H176.837V3H181.728V1.5H186.62V3H191.511V1.5H196.402V3H201.294V1.5H206.185V3H211.076V1.5H215.967V3H220.859V1.5H225.75V3H230.641V1.5H235.533V3H240.424V1.5H245.315V3H250.207V1.5H255.098V3H259.989V1.5H264.881V3H269.772V1.5H274.663V3H279.554V1.5H282C282.847 1.5 283.69 1.52046 284.527 1.56094L284.454 3.05919C286.105 3.13897 287.734 3.29879 289.339 3.53484L289.558 2.05081C291.238 2.29804 292.893 2.62647 294.517 3.03201L294.153 4.48733C295.751 4.88619 297.317 5.36186 298.85 5.9102L299.355 4.49791C300.95 5.0685 302.508 5.71544 304.025 6.4343L303.383 7.78985C304.866 8.49273 306.31 9.26648 307.708 10.1067L308.481 8.82086C309.929 9.69051 311.33 10.6293 312.681 11.6325L311.786 12.8367C313.101 13.8135 314.367 14.8535 315.578 15.952L316.586 14.8408C317.834 15.9731 319.027 17.1658 320.159 18.4144L319.048 19.422C320.147 20.6333 321.186 21.8987 322.163 23.2137L323.367 22.3193C324.371 23.6699 325.309 25.0714 326.179 26.5192L324.893 27.2916C325.734 28.6905 326.507 30.1339 327.21 31.6174L328.566 30.9751C329.285 32.4924 329.931 34.0504 330.502 35.6449L329.09 36.1503C329.638 37.6825 330.114 39.2494 330.513 40.8466L331.968 40.4832C332.374 42.1073 332.702 43.7617 332.949 45.4424L331.465 45.6607C331.701 47.2655 331.861 48.895 331.941 50.5456L333.439 50.4732C333.48 51.3105 333.5 52.1529 333.5 53V55.45H332V60.35H333.5V65.25H332V70.15H333.5V75.05H332V79.95H333.5V84.85H332V89.75H333.5V94.65H332V99.55H333.5V102C333.5 102.847 333.48 103.69 333.439 104.527L331.941 104.454C331.861 106.105 331.701 107.735 331.465 109.339L332.949 109.558C332.702 111.238 332.374 112.893 331.968 114.517L330.513 114.153C330.114 115.751 329.638 117.317 329.09 118.85L330.502 119.355C329.931 120.95 329.285 122.508 328.566 124.025L327.21 123.383C326.507 124.866 325.734 126.31 324.893 127.708L326.179 128.481C325.309 129.929 324.371 131.33 323.367 132.681L322.163 131.786C321.186 133.101 320.147 134.367 319.048 135.578L320.159 136.586C319.027 137.834 317.834 139.027 316.586 140.159L315.578 139.048C314.367 140.147 313.101 141.186 311.786 142.163L312.681 143.367C311.33 144.371 309.929 145.309 308.481 146.179L307.708 144.893C306.31 145.734 304.866 146.507 303.383 147.21L304.025 148.566C302.508 149.285 300.95 149.932 299.355 150.502L298.85 149.09C297.317 149.638 295.751 150.114 294.153 150.513L294.517 151.968C292.893 152.374 291.238 152.702 289.558 152.949L289.339 151.465C287.734 151.701 286.105 151.861 284.454 151.941L284.527 153.439C283.69 153.48 282.847 153.5 282 153.5H279.554V152H274.663V153.5H269.772V152H264.88V153.5H259.989V152H255.098V153.5H250.207V152H245.315V153.5H240.424V152H235.533V153.5H230.641V152H225.75V153.5H220.859V152H215.967V153.5H211.076V152H206.185V153.5H201.293V152H196.402V153.5H191.511V152H186.62V153.5H181.728V152H176.837V153.5H171.946V152H167.054V153.5H162.163V152H157.272V153.5H152.38V152H147.489V153.5H142.598V152H137.706V153.5H132.815V152H127.924V153.5H123.033V152H118.141V153.5H113.25V152H108.359V153.5H103.467V152H98.576V153.5H93.6847V152H88.7934V153.5H83.9021V152H79.0108V153.5H74.1194V152H69.2281V153.5H64.3368V152H59.4455V153.5H57C56.1529 153.5 55.3105 153.48 54.4732 153.439L54.5456 151.941Z" stroke="black" stroke-width="3" stroke-dasharray="5 5" shape-rendering="crispEdges"/>
</g>
<defs>
<filter id="filter0_d_29_7" x="0" y="0" width="339" height="163" filterUnits="userSpaceOnUse" color-interpolation-filters="sRGB">
<feFlood flood-opacity="0" result="BackgroundImageFix"/>
<feColorMatrix in="SourceAlpha" type="matrix" values="0 0 0 0 0 0 0 0 0 0 0 0 0 0 0 0 0 0 127 0" result="hardAlpha"/>
<feOffset dy="4"/>
<feGaussianBlur stdDeviation="2"/>
<feComposite in2="hardAlpha" operator="out"/>
<feColorMatrix type="matrix" values="0 0 0 0 0 0 0 0 0 0 0 0 0 0 0 0 0 0 0.25 0"/>
<feBlend mode="normal" in2="BackgroundImageFix" result="effect1_dropShadow_29_7"/>
<feBlend mode="normal" in="SourceGraphic" in2="effect1_dropShadow_29_7" result="shape"/>
</filter>
<linearGradient id="paint0_linear_29_7" x1="135.5" y1="3" x2="135.5" y2="152" gradientUnits="userSpaceOnUse">
<stop stop-opacity="0.25"/>
<stop offset="1" stop-color="#7CF91B"/>
</linearGradient>
</defs>
</svg>
